<?xml version="1.0" encoding="utf-8"?>
<!-- Generator: Adobe Illustrator 17.0.0, SVG Export Plug-In . SVG Version: 6.00 Build 0)  -->
<!DOCTYPE svg PUBLIC "-//W3C//DTD SVG 1.1//EN" "http://www.w3.org/Graphics/SVG/1.1/DTD/svg11.dtd">
<svg version="1.1" id="Layer_1" xmlns="http://www.w3.org/2000/svg" xmlns:xlink="http://www.w3.org/1999/xlink" x="0px" y="0px"
	 width="128px" height="80px" viewBox="0 0 128 80" enable-background="new 0 0 128 80" xml:space="preserve">
<g>
	<g>
		<path class="flap" fill="#DEDEDD" d="M1,3c0.667-0.667,1.321-1.897,2.002-1.912C9.499,0.941,16,1,22.5,1C56.667,1,90.833,0.989,125,1.042
			c1.334,0.002,2.667,0.624,4,0.958c-2.651,2.017-5.301,4.034-7.953,6.05c-1.042,0.419-2.235,0.637-3.103,1.287
			c-14.407,10.798-28.773,21.651-43.148,32.492c-3.224,2.304-6.448,4.608-9.796,7.001c-3.349-2.394-6.573-4.699-9.797-7.004
			C40.853,31.006,26.519,20.163,12.125,9.401c-1.141-0.853-2.7-1.149-4.064-1.703C5.707,6.132,3.354,4.566,1,3z"/>
		<path fill="#F28E2C" d="M124,81c-40,0-80,0-120,0c1.58-1.947,2.856-4.287,4.788-5.778c12.375-9.546,24.894-18.905,37.364-28.324
			c-0.002,0.001,0.45,0.027,0.45,0.027s0.452-0.006,0.452-0.006C53.212,52.626,59.37,58.334,65,63.552
			c5.632-5.22,11.791-10.928,17.95-16.636c0,0,0.452,0.006,0.452,0.006l0.451-0.027c0.36,0.343,0.689,0.728,1.084,1.024
			c12.636,9.491,25.297,18.947,37.892,28.492C124.242,77.482,127.387,78.526,124,81z"/>
		<path fill="#FEC86C" d="M124,81c3.387-2.474,0.242-3.518-1.171-4.589c-12.594-9.545-25.256-19.001-37.892-28.492
			c-0.395-0.297-0.724-0.681-1.083-1.023c11.238-11.372,22.496-22.724,33.685-34.143c1.356-1.384,2.348-3.126,3.509-4.702
			C123.699,6.034,126.349,4.017,129,2c0,26.333,0,52.667,0,79C127.333,81,125.667,81,124,81z"/>
		<path fill="#FEC86C" d="M46.153,46.897c-12.472,9.42-24.99,18.779-37.365,28.325C6.856,76.713,5.58,79.053,4,81
			c-0.994,0-1.988,0-3,0C1,55,1,29,1,3c2.354,1.566,4.707,3.132,7.06,4.699c1.146,1.382,2.199,2.856,3.454,4.13
			C23.04,23.538,34.602,35.213,46.153,46.897z"/>
		<path fill="#AD6521" d="M82.95,46.916C76.791,52.624,70.633,58.332,65,63.552c-5.63-5.218-11.789-10.926-17.948-16.633
			c2.717-1.697,5.433-3.394,8.15-5.092c3.224,2.305,6.448,4.609,9.797,7.004c3.348-2.393,6.572-4.697,9.796-7.001
			C77.514,43.525,80.232,45.221,82.95,46.916z"/>
		<path fill="#B79050" d="M55.203,41.827c-2.717,1.698-5.434,3.395-8.15,5.092c0-0.001-0.451,0.006-0.451,0.006
			s-0.451-0.026-0.45-0.027C34.602,35.213,23.04,23.538,11.514,11.83c-1.255-1.275-2.308-2.748-3.454-4.13
			c1.365,0.554,2.923,0.849,4.065,1.702C26.519,20.163,40.853,31.006,55.203,41.827z"/>
		<path fill="#B79050" d="M82.95,46.916c-2.718-1.695-5.436-3.391-8.154-5.087c14.375-10.841,28.741-21.693,43.148-32.492
			c0.868-0.651,2.061-0.868,3.103-1.287c-1.16,1.576-2.152,3.318-3.508,4.702c-11.19,11.419-22.447,22.771-33.685,34.143
			c-0.001-0.001-0.452,0.026-0.452,0.026L82.95,46.916z"/>
	</g>
</g>
</svg>
