<svg xmlns="http://www.w3.org/2000/svg" xmlns:xlink="http://www.w3.org/1999/xlink" version="1.1" id="Your_Icon" x="0px" y="0px" width="100px" height="100px" viewBox="0 0 100 100" enable-background="new 0 0 100 100" xml:space="preserve">
<g>
	<path d="M35.773,37.998c-1.312-2.003-3.34-3.234-6.086-3.234c-3.857,0-7.021,1.625-9.488,5.104   c-2.037,2.858-3.055,5.962-3.055,9.424c0,2.8,0.844,5.014,2.533,6.701s3.814,2.517,6.376,2.517c2.376,0,4.474-0.848,6.295-2.527   c0.216,0.827,0.648,1.449,1.296,1.876c0.214,0.141,0.476,0.702,0.759,0.797L40.887,36h-4.534L35.773,37.998z M33.61,48.505   c-0.595,1.725-1.3,3.036-2.118,3.934c-0.571,0.634-1.149,1.098-1.735,1.393c-0.771,0.412-1.597,0.618-2.477,0.618   c-1.173,0-2.156-0.44-2.95-1.325c-0.795-0.884-1.192-2.263-1.192-4.134c0-1.398,0.286-3.005,0.856-4.817   c0.57-1.813,1.419-3.209,2.545-4.188c1.127-0.98,2.354-1.47,3.68-1.47c1.234,0,2.258,0.446,3.066,1.337   c0.811,0.892,1.215,2.169,1.215,3.834C34.5,45.175,34.203,46.781,33.61,48.505z"/>
	<path d="M42.531,27.686c-3.024-1.445-6.479-2.167-10.368-2.167c-4.582,0-8.655,0.896-12.22,2.686   c-3.563,1.79-6.371,4.472-8.423,8.045c-2.052,3.572-3.077,7.43-3.077,11.569c0,3.772,0.902,7.261,2.707,10.465   c1.805,3.205,4.559,5.63,8.262,7.271c3.469,1.539,7.554,2.347,12.241,2.444l1.141-4.066c-0.191,0.003-0.367,0.021-0.562,0.021   c-3.826,0-7.225-0.586-10.193-1.758c-2.971-1.172-5.277-3.031-6.92-5.58c-1.643-2.55-2.465-5.379-2.465-8.487   c0-3.197,0.736-6.273,2.21-9.227c1.474-2.954,3.664-5.245,6.573-6.874c2.906-1.627,6.452-2.441,10.634-2.441   c3.932,0,7.157,0.792,9.701,2.349l1.137-4.054C42.782,27.817,42.661,27.748,42.531,27.686z"/>
</g>
<path d="M91.364,29H50.967l-1.072,4h36.542L58.458,54.377c-0.231,0.177-0.636,0.157-0.899-0.046L46.41,45.739l-1.083,4.043  l9.055,6.978c2.071,1.596,5.372,1.661,7.357,0.145l28.518-21.788l-8.923,33.302C81.247,68.739,80.938,69,80.646,69H40.249l-1.072,4  h40.398c2.498,0,5.081-2.056,5.758-4.582l9.334-34.836C95.344,31.056,93.862,29,91.364,29z"/>
<polygon points="34.023,84 30.023,84 47.977,17 51.977,17 "/>
</svg>